<?xml version="1.0" encoding="UTF-8" standalone="no"?>
<!DOCTYPE svg PUBLIC "-//W3C//DTD SVG 1.1//EN" "http://www.w3.org/Graphics/SVG/1.1/DTD/svg11.dtd">
<svg width="100%" height="100%" viewBox="0 0 497 609" version="1.1" xmlns="http://www.w3.org/2000/svg" xmlns:xlink="http://www.w3.org/1999/xlink" xml:space="preserve" xmlns:serif="http://www.serif.com/" style="fill-rule:evenodd;clip-rule:evenodd;stroke-linejoin:round;stroke-miterlimit:2;">
    <path d="M273.81,52.973C313.806,0.257 369.41,0 369.41,0C369.41,0 377.681,49.562 337.947,97.306C295.521,148.286 247.298,139.944 247.298,139.944C247.298,139.944 238.243,99.85 273.81,52.973ZM252.385,174.662C272.961,174.662 311.149,146.378 360.856,146.378C446.418,146.378 480.078,207.261 480.078,207.261C480.078,207.261 414.245,240.92 414.245,322.592C414.245,414.725 496.255,446.477 496.255,446.477C496.255,446.477 438.927,607.834 361.493,607.834C325.928,607.834 298.278,583.867 260.805,583.867C222.617,583.867 184.721,608.728 160.039,608.728C89.33,608.73 0,455.666 0,332.628C0,211.576 75.612,148.074 146.533,148.074C192.638,148.074 228.416,174.662 252.385,174.662Z" style="fill:rgb(255,169,0);fill-rule:nonzero;"/>
</svg>
