<?xml version="1.0" encoding="UTF-8" standalone="no"?>
<!DOCTYPE svg PUBLIC "-//W3C//DTD SVG 1.1//EN" "http://www.w3.org/Graphics/SVG/1.1/DTD/svg11.dtd">
<svg width="100%" height="100%" viewBox="0 0 16 16" version="1.1" xmlns="http://www.w3.org/2000/svg" xmlns:xlink="http://www.w3.org/1999/xlink" xml:space="preserve" xmlns:serif="http://www.serif.com/" style="fill-rule:evenodd;clip-rule:evenodd;stroke-linecap:round;stroke-linejoin:round;stroke-miterlimit:1.5;">
    <g transform="matrix(0.909091,0,0,5.727273,1.181818,-10.909091)">
        <rect x="2" y="3" width="11" height="1" style="fill:rgb(255,169,0);stroke:rgb(255,169,0);stroke-width:0.24px;"/>
    </g>
    <g transform="matrix(0.833333,0,0,0.545455,1.333333,1.909091)">
        <path d="M2,5L5,2L12,2L14,5L2,5" style="fill:rgb(255,169,0);stroke:rgb(255,169,0);stroke-width:1.42px;"/>
    </g>
    <g transform="matrix(2,0,0,2,-9,1)">
        <path d="M9,3.25L9,4.75C9,4.888 8.888,5 8.75,5L8.25,5C8.112,5 8,4.888 8,4.75L8,3.25C8,3.112 8.112,3 8.25,3L8.75,3C8.888,3 9,3.112 9,3.25Z" style="fill:rgb(235,235,235);"/>
    </g>
</svg>
