<?xml version="1.0" encoding="UTF-8" standalone="no"?>
<!DOCTYPE svg PUBLIC "-//W3C//DTD SVG 1.1//EN" "http://www.w3.org/Graphics/SVG/1.1/DTD/svg11.dtd">
<svg width="100%" height="100%" viewBox="0 0 16 16" version="1.1" xmlns="http://www.w3.org/2000/svg" xmlns:xlink="http://www.w3.org/1999/xlink" xml:space="preserve" xmlns:serif="http://www.serif.com/" style="fill-rule:evenodd;clip-rule:evenodd;stroke-linecap:round;stroke-linejoin:round;stroke-miterlimit:1.5;">
    <g transform="matrix(0.909091,0,0,5.727273,1.181818,-10.909091)">
        <rect x="2" y="3" width="11" height="1" style="fill:rgb(255,169,0);stroke:rgb(255,169,0);stroke-width:0.24px;"/>
    </g>
    <g transform="matrix(0.833333,0,0,0.545455,1.333333,1.909091)">
        <path d="M2,5L5,2L12,2L14,5L2,5" style="fill:rgb(255,169,0);stroke:rgb(255,169,0);stroke-width:1.42px;"/>
    </g>
    <g transform="matrix(0.833333,0,0,0.818182,1.333333,1.363636)">
        <path d="M7,6L7,7" style="fill:none;"/>
    </g>
    <g transform="matrix(0.952381,0,0,0.818182,1.809524,0.545455)">
        <path d="M10,8.25L10,8.75C10,8.888 9.904,9 9.785,9L3.215,9C3.096,9 3,8.888 3,8.75L3,8.25C3,8.112 3.096,8 3.215,8L9.785,8C9.904,8 10,8.112 10,8.25Z" style="fill:white;"/>
    </g>
    <g transform="matrix(0.952381,0,0,0.818182,1.809524,2.181818)">
        <path d="M10,8.25L10,8.75C10,8.888 9.904,9 9.785,9L3.215,9C3.096,9 3,8.888 3,8.75L3,8.25C3,8.112 3.096,8 3.215,8L9.785,8C9.904,8 10,8.112 10,8.25Z" style="fill:white;"/>
    </g>
    <g transform="matrix(0.952381,0,0,0.818182,1.809524,3.818182)">
        <path d="M10,8.25L10,8.75C10,8.888 9.904,9 9.785,9L3.215,9C3.096,9 3,8.888 3,8.75L3,8.25C3,8.112 3.096,8 3.215,8L9.785,8C9.904,8 10,8.112 10,8.25Z" style="fill:white;"/>
    </g>
</svg>
