<?xml version="1.0" encoding="UTF-8" standalone="no"?>
<!DOCTYPE svg PUBLIC "-//W3C//DTD SVG 1.1//EN" "http://www.w3.org/Graphics/SVG/1.1/DTD/svg11.dtd">
<svg width="100%" height="100%" viewBox="0 0 16 16" version="1.1" xmlns="http://www.w3.org/2000/svg" xmlns:xlink="http://www.w3.org/1999/xlink" xml:space="preserve" xmlns:serif="http://www.serif.com/" style="fill-rule:evenodd;clip-rule:evenodd;stroke-linejoin:round;stroke-miterlimit:2;">
    <g transform="matrix(0.108581,0,0,0.099629,1.409352,1.743826)">
        <path d="M109.58,73.94L99.15,66.2C99.15,66.04 99.15,65.88 99.22,65.72L99.22,65.53C99.32,64.863 99.407,64.197 99.48,63.53L99.48,63.4C99.553,62.693 99.607,61.99 99.64,61.29L99.64,61.2C99.673,60.533 99.69,59.837 99.69,59.11L99.69,56.87C99.69,56.5 99.69,56.13 99.63,55.75L99.63,55.3C99.63,55.19 99.63,54.91 99.57,54.71L99.57,53.44C99.51,52.93 99.44,52.44 99.35,51.93L99.35,51.8L109.6,44C112.059,42.581 112.916,39.391 111.5,36.93L102.86,22C101.441,19.541 98.251,18.684 95.79,20.1L83.85,25.3L83.65,25.14L83.56,25.06L83.09,24.69L82.58,24.29L82.15,24L81.95,23.85L81.6,23.59L81.41,23.45L80.92,23.11L80.8,23L80.59,22.85L79.87,22.37L79.79,22.32C79.39,22.06 79,21.81 78.59,21.57L78.28,21.39C77.41,20.88 76.53,20.39 75.62,19.94L75.57,19.94C74.39,19.313 73.2,18.777 72,18.33L71.9,18.33L71.43,18.14L69.89,5.18C69.89,2.342 67.558,0.005 64.72,0L47.46,0C44.618,0 42.28,2.338 42.28,5.18L40.79,18.1L40.58,18.18L40.34,18.28C39.86,18.46 39.39,18.66 38.92,18.86L38.67,18.97L37.41,19.54L37.28,19.6L37.11,19.68L36.65,19.91L35.65,20.45L34.9,20.85L34.43,21.12L34.34,21.12L34.19,21.21C33.623,21.537 33.067,21.87 32.52,22.21L32.14,22.45L32.09,22.45C31.617,22.763 31.153,23.097 30.7,23.45L30.51,23.59C29.997,23.963 29.49,24.347 28.99,24.74L28.73,24.95L28.4,25.21L16.4,20.14C13.95,18.717 10.763,19.555 9.33,22L0.7,37C0.243,37.789 0.003,38.684 0.003,39.596C0.003,41.443 0.991,43.155 2.59,44.08L13,51.8C13,51.93 13,52.05 12.94,52.18L12.88,52.61C12.79,53.2 12.72,53.8 12.65,54.39L12.65,54.74C12.6,55.27 12.55,55.8 12.52,56.33L12.52,63.26C12.52,63.65 12.59,64.03 12.64,64.41C12.707,64.977 12.787,65.543 12.88,66.11L12.88,66.21L2.59,73.94C0.141,75.363 -0.711,78.544 0.7,81L9.33,96C10.749,98.459 13.939,99.316 16.4,97.9L28.32,92.7L28.57,92.89L28.96,93.2L29.58,93.68L30,94L30.48,94.36L30.53,94.36L30.76,94.52L31.32,94.91L31.54,95.06C32.19,95.51 32.86,95.94 33.54,96.35L33.9,96.56C34.753,97.067 35.623,97.543 36.51,97.99L36.6,97.99C37.951,98.664 39.336,99.269 40.75,99.8L42.24,112.7C42.239,112.74 42.239,112.78 42.239,112.82C42.239,115.662 44.577,118 47.419,118L64.71,118C67.552,118 69.89,115.662 69.89,112.82L71.38,99.91L71.6,99.83L71.81,99.74C72.29,99.553 72.767,99.36 73.24,99.16L73.52,99.04L74.78,98.47L74.9,98.41L75.03,98.35L75.52,98.11L76.52,97.58L77.29,97.17L77.68,96.95L77.81,96.87L77.88,96.87L77.99,96.8C78.577,96.46 79.157,96.103 79.73,95.73L79.86,95.65L80.13,95.48C80.61,95.16 81.13,94.83 81.56,94.48L81.7,94.38C82.23,93.99 82.76,93.6 83.27,93.19L83.5,93L83.85,92.72L95.77,97.88C98.231,99.296 101.421,98.439 102.84,95.98L111.48,81C112.889,78.541 112.033,75.359 109.58,73.94ZM56.09,77C46.215,77 38.09,68.875 38.09,59C38.09,49.125 46.215,41 56.09,41C65.965,41 74.09,49.125 74.09,59C74.09,68.875 65.965,77 56.09,77Z" style="fill:rgb(255,169,0);fill-rule:nonzero;"/>
    </g>
</svg>
