<?xml version="1.0" encoding="UTF-8" standalone="no"?>
<!DOCTYPE svg PUBLIC "-//W3C//DTD SVG 1.1//EN" "http://www.w3.org/Graphics/SVG/1.1/DTD/svg11.dtd">
<svg width="100%" height="100%" viewBox="0 0 16 16" version="1.1" xmlns="http://www.w3.org/2000/svg" xmlns:xlink="http://www.w3.org/1999/xlink" xml:space="preserve" xmlns:serif="http://www.serif.com/" style="fill-rule:evenodd;clip-rule:evenodd;stroke-linejoin:round;stroke-miterlimit:2;">
    <path d="M12.58,2L2.5,2L2.5,12.08C2.5,12.589 2.702,13.078 3.062,13.438C3.422,13.798 3.911,14 4.42,14L12.58,14C13.089,14 13.578,13.798 13.938,13.438C14.298,13.078 14.5,12.589 14.5,12.08L14.5,3.92C14.5,3.411 14.298,2.922 13.938,2.562C13.578,2.202 13.089,2 12.58,2ZM3.358,11.629C3.346,12.667 3.964,13.231 4.966,13.232L4.966,13.232C6.064,13.246 6.71,12.48 6.631,11.387L5.481,11.387C5.49,11.601 5.472,11.897 5.36,12.031C5.28,12.144 5.162,12.2 5.006,12.2C4.674,12.195 4.508,11.953 4.508,11.475L4.508,9.195C4.508,8.942 4.544,8.752 4.616,8.623C4.734,8.385 5.18,8.358 5.348,8.587C5.478,8.713 5.49,9.047 5.481,9.268L6.631,9.268C6.661,8.706 6.535,8.104 6.201,7.809C5.659,7.235 4.374,7.268 3.82,7.801C3.512,8.075 3.358,8.475 3.358,9.002L3.358,11.629ZM7.041,11.387C7.01,12.457 7.507,13.247 8.617,13.232L8.617,13.232C10.157,13.297 10.587,11.592 9.96,10.476C9.75,10.11 9.17,9.807 8.714,9.63C8.362,9.468 8.21,9.309 8.207,8.921C8.207,8.556 8.36,8.373 8.665,8.373C8.837,8.373 8.954,8.429 9.015,8.542C9.103,8.675 9.125,9.041 9.116,9.267L10.161,9.267C10.187,8.716 10.055,8.117 9.755,7.813C9.268,7.223 7.998,7.249 7.511,7.825C7.011,8.292 6.978,9.444 7.335,9.968C7.493,10.205 7.751,10.409 8.111,10.581C8.159,10.605 8.216,10.631 8.276,10.66C8.532,10.779 8.864,10.934 8.971,11.105C9.161,11.324 9.136,11.891 9.003,12.088C8.934,12.195 8.813,12.249 8.641,12.249C8.257,12.278 8.097,11.853 8.127,11.387L7.041,11.387ZM10.547,11.387C10.517,12.457 11.013,13.247 12.124,13.232L12.123,13.232C13.663,13.297 14.094,11.592 13.466,10.476C13.256,10.11 12.676,9.807 12.22,9.63C11.868,9.468 11.717,9.309 11.713,8.921C11.713,8.556 11.866,8.373 12.172,8.373C12.343,8.373 12.46,8.429 12.521,8.542C12.609,8.675 12.631,9.041 12.622,9.267L13.667,9.267C13.693,8.716 13.562,8.117 13.261,7.813C12.774,7.223 11.504,7.249 11.018,7.825C10.517,8.292 10.484,9.444 10.841,9.968C10.999,10.205 11.258,10.409 11.617,10.581C11.665,10.605 11.722,10.631 11.783,10.66C12.039,10.779 12.37,10.934 12.477,11.105C12.667,11.324 12.642,11.891 12.51,12.088C12.44,12.195 12.319,12.249 12.148,12.249C11.763,12.278 11.603,11.853 11.633,11.387L10.547,11.387Z" style="fill:rgb(255,169,0);"/>
</svg>
