<?xml version="1.0" encoding="UTF-8" standalone="no"?>
<!DOCTYPE svg PUBLIC "-//W3C//DTD SVG 1.1//EN" "http://www.w3.org/Graphics/SVG/1.1/DTD/svg11.dtd">
<svg width="100%" height="100%" viewBox="0 0 255 225" version="1.1" xmlns="http://www.w3.org/2000/svg" xmlns:xlink="http://www.w3.org/1999/xlink" xml:space="preserve" xmlns:serif="http://www.serif.com/" style="fill-rule:evenodd;clip-rule:evenodd;stroke-linejoin:round;stroke-miterlimit:2;">
    <g transform="matrix(0.822795,0,0,1,61.418386,-2)">
        <path d="M-46.926,89C-47.547,89 -47.703,88.689 -47.392,88.223L-44.13,84.029C-43.703,83.531 -43.078,83.247 -42.422,83.252L13.026,83.252C13.647,83.252 13.803,83.718 13.492,84.184L10.852,88.222C10.479,88.726 9.92,89.062 9.299,89.154L-46.926,89Z" style="fill:rgb(93,201,225);fill-rule:nonzero;"/>
    </g>
    <g transform="matrix(0.822795,0,0,1,61.418386,-2)">
        <path d="M-70.379,103.285C-71,103.285 -71.156,102.974 -70.845,102.508L-67.583,98.314C-67.156,97.816 -66.531,97.532 -65.875,97.537L4.95,97.537C4.983,97.532 5.016,97.53 5.049,97.53C5.441,97.53 5.763,97.852 5.763,98.244C5.763,98.32 5.751,98.396 5.727,98.469L4.484,102.2C4.29,102.795 3.708,103.182 3.084,103.132L-70.379,103.285Z" style="fill:rgb(93,201,225);fill-rule:nonzero;"/>
    </g>
    <g transform="matrix(0.822795,0,0,1,61.418386,-2)">
        <path d="M-32.792,117.574C-33.413,117.574 -33.569,117.108 -33.258,116.642L-31.084,112.759C-30.738,112.226 -30.164,111.881 -29.531,111.827L1.533,111.827C2.154,111.827 2.465,112.293 2.465,112.914L2.154,116.642C2.115,117.223 1.648,117.69 1.067,117.729L-32.792,117.574Z" style="fill:rgb(93,201,225);fill-rule:nonzero;"/>
    </g>
    <g transform="matrix(0.752482,0,0,0.781843,63.38363,17.542585)">
        <path d="M128.426,86.2C118.641,88.685 111.962,90.549 102.333,93.034C100.003,93.655 99.848,93.811 97.833,91.481C95.503,88.841 93.795,87.132 90.533,85.581C80.748,80.766 71.274,82.164 62.421,87.911C51.86,94.745 46.421,104.84 46.579,117.421C46.734,129.846 55.279,140.097 67.547,141.806C78.108,143.206 86.961,139.476 93.947,131.555C95.347,129.847 96.587,127.983 98.141,125.808L68.163,125.808C64.901,125.808 64.125,123.789 65.212,121.149C67.231,116.334 70.959,108.258 73.133,104.22C73.814,102.694 75.345,101.714 77.016,101.735L133.551,101.735C133.24,105.929 133.24,110.122 132.619,114.316C131.01,125.375 126.628,135.848 119.883,144.758C108.7,159.51 94.1,168.673 75.618,171.158C60.397,173.177 46.263,170.226 33.838,160.907C22.675,152.736 15.499,140.191 14.113,126.427C12.094,109.498 17.064,94.277 27.313,80.919C38.342,66.475 52.942,57.312 70.8,54.05C85.4,51.41 99.378,53.118 111.959,61.66C120.004,67.01 126.277,74.635 129.976,83.56C130.911,84.958 130.289,85.735 128.426,86.2Z" style="fill:rgb(93,201,225);fill-rule:nonzero;"/>
    </g>
    <g transform="matrix(0.752482,0,0,0.781843,63.38363,17.542585)">
        <path d="M179.835,172.09C165.701,171.779 152.81,167.741 141.935,158.422C132.892,150.8 126.926,140.14 125.161,128.446C122.361,110.895 127.18,95.364 137.742,81.541C149.08,66.631 162.748,58.865 181.23,55.603C197.072,52.803 211.983,54.36 225.495,63.524C237.765,71.911 245.375,83.249 247.395,98.159C250.035,119.127 243.978,136.211 229.534,150.811C219.408,161.056 206.407,167.99 192.258,170.691C188.067,171.469 183.874,171.624 179.835,172.09ZM216.8,109.343C216.743,107.627 216.588,105.916 216.334,104.218C213.534,88.842 199.405,80.144 184.65,83.561C170.206,86.823 160.887,95.986 157.47,110.586C154.569,122.487 160.603,134.883 171.759,139.941C180.301,143.669 188.844,143.203 197.076,139.009C209.345,132.64 216.024,122.7 216.8,109.343Z" style="fill:rgb(93,201,225);fill-rule:nonzero;"/>
    </g>
</svg>
