<?xml version="1.0" encoding="UTF-8" standalone="no"?>
<!DOCTYPE svg PUBLIC "-//W3C//DTD SVG 1.1//EN" "http://www.w3.org/Graphics/SVG/1.1/DTD/svg11.dtd">
<svg width="100%" height="100%" viewBox="0 0 16 16" version="1.1" xmlns="http://www.w3.org/2000/svg" xmlns:xlink="http://www.w3.org/1999/xlink" xml:space="preserve" xmlns:serif="http://www.serif.com/" style="fill-rule:evenodd;clip-rule:evenodd;stroke-linejoin:round;stroke-miterlimit:2;">
    <path d="M4,2C2.895,2 2,2.895 2,4L2,12C2,13.105 2.895,14 4,14L12,14C13.105,14 14,13.105 14,12L14,4C14,2.895 13.105,2 12,2L4,2ZM7.269,6.806L6.048,6.806L6.048,10.881C6.048,11.067 6.02,11.224 5.965,11.352C5.91,11.479 5.829,11.576 5.723,11.643C5.618,11.707 5.489,11.74 5.337,11.74C5.193,11.74 5.067,11.711 4.961,11.654C4.856,11.595 4.773,11.511 4.712,11.403C4.653,11.293 4.622,11.16 4.618,11.006L3.388,11.006C3.386,11.394 3.469,11.717 3.637,11.974C3.804,12.229 4.03,12.419 4.316,12.544C4.603,12.668 4.923,12.73 5.275,12.73C5.67,12.73 6.017,12.655 6.316,12.505C6.615,12.354 6.848,12.14 7.015,11.862C7.185,11.585 7.269,11.257 7.269,10.881L7.269,6.806ZM11.167,7.95C11.34,8.078 11.438,8.256 11.461,8.487L12.645,8.487C12.64,8.138 12.546,7.832 12.366,7.568C12.185,7.303 11.932,7.097 11.607,6.949C11.283,6.8 10.905,6.726 10.471,6.726C10.045,6.726 9.664,6.8 9.329,6.949C8.995,7.097 8.731,7.303 8.539,7.568C8.349,7.832 8.255,8.141 8.257,8.495C8.255,8.927 8.396,9.27 8.682,9.525C8.967,9.78 9.356,9.968 9.849,10.088L10.485,10.247C10.698,10.299 10.878,10.356 11.024,10.418C11.173,10.481 11.285,10.557 11.361,10.647C11.439,10.736 11.478,10.847 11.478,10.978C11.478,11.119 11.435,11.243 11.35,11.352C11.264,11.46 11.143,11.545 10.987,11.606C10.833,11.666 10.652,11.697 10.442,11.697C10.229,11.697 10.038,11.665 9.869,11.6C9.701,11.533 9.567,11.435 9.466,11.306C9.368,11.175 9.311,11.011 9.298,10.815L8.102,10.815C8.112,11.236 8.214,11.588 8.408,11.874C8.604,12.157 8.876,12.371 9.224,12.516C9.574,12.661 9.985,12.733 10.457,12.733C10.932,12.733 11.338,12.661 11.675,12.519C12.014,12.374 12.273,12.171 12.451,11.911C12.632,11.648 12.723,11.338 12.725,10.981C12.723,10.737 12.679,10.521 12.591,10.333C12.505,10.145 12.385,9.981 12.229,9.842C12.073,9.703 11.888,9.586 11.675,9.491C11.462,9.396 11.228,9.32 10.973,9.263L10.448,9.137C10.321,9.109 10.201,9.074 10.088,9.034C9.976,8.993 9.877,8.944 9.792,8.889C9.706,8.832 9.639,8.764 9.589,8.686C9.542,8.608 9.52,8.517 9.524,8.412C9.524,8.287 9.56,8.175 9.632,8.076C9.706,7.977 9.813,7.9 9.952,7.845C10.09,7.787 10.261,7.759 10.462,7.759C10.759,7.759 10.994,7.823 11.167,7.95Z" style="fill:rgb(255,169,0);"/>
</svg>
